<svg width="20" height="20" viewBox="0 0 64 64" fill="none" xmlns="http://www.w3.org/2000/svg">
    <path d="M18.5845 46.5688C16.7562 46.5656 14.9749 45.9928 13.4915 44.9311C12.0081 43.8695 10.8972 42.3723 10.3153 40.6505L10.2353 40.3854C9.97354 39.5725 9.83676 38.7251 9.82954 37.8717V22.0684L4.17082 40.8414C3.83234 42.1769 4.03397 43.591 4.7325 44.7805C5.43104 45.9701 6.57087 46.8405 7.90771 47.2052L43.9901 56.8038C44.4294 56.9169 44.8815 56.974 45.3354 56.9735C46.4721 56.9748 47.578 56.6064 48.4842 55.9246C49.3903 55.2428 50.0468 54.285 50.3535 53.1977L52.4568 46.5688H18.5845Z"
          fill="white"/>
    <path d="M25.0013 22.2275C25.9242 22.2275 26.8262 21.9557 27.5935 21.4464C28.3608 20.9371 28.9588 20.2132 29.312 19.3663C29.6651 18.5194 29.7575 17.5875 29.5775 16.6884C29.3974 15.7893 28.9531 14.9634 28.3006 14.3152C27.648 13.667 26.8167 13.2256 25.9116 13.0467C25.0065 12.8679 24.0684 12.9597 23.2158 13.3105C22.3633 13.6613 21.6346 14.2554 21.1219 15.0176C20.6092 15.7798 20.3356 16.6759 20.3356 17.5926C20.337 18.8214 20.829 19.9995 21.7037 20.8684C22.5784 21.7373 23.7643 22.2261 25.0013 22.2275V22.2275Z"
          fill="white"/>
    <path d="M54.1811 6H19.1664C17.6194 6.0014 16.1361 6.61253 15.0421 7.69925C13.9482 8.78596 13.333 10.2595 13.3315 11.7963V37.2883C13.3315 38.8261 13.9461 40.301 15.0402 41.3888C16.1343 42.4767 17.6184 43.0885 19.1664 43.0899H54.1811C55.7263 43.0843 57.2063 42.4706 58.297 41.3832C59.3876 40.2958 60 38.8234 60 37.2883V11.7963C59.9986 10.2622 59.3856 8.79111 58.2951 7.70485C57.2046 6.61859 55.7254 6.00561 54.1811 6V6ZM19.1664 10.6349H54.1811C54.4912 10.6349 54.7885 10.7573 55.0078 10.9751C55.2271 11.1929 55.3502 11.4883 55.3502 11.7963V28.2731L47.9619 19.7085C47.5723 19.2638 47.0918 18.9065 46.5524 18.6605C46.013 18.4146 45.427 18.2855 44.8335 18.282C44.2378 18.285 43.65 18.4176 43.1114 18.6704C42.5727 18.9233 42.0964 19.2903 41.7159 19.7457L33.0517 30.0761L30.2276 27.2761C29.4599 26.5144 28.4192 26.0866 27.3342 26.0866C26.2492 26.0866 25.2085 26.5144 24.4408 27.2761L17.9973 33.6769V11.7963C17.9973 11.4883 18.1205 11.1929 18.3397 10.9751C18.559 10.7573 18.8564 10.6349 19.1664 10.6349V10.6349Z"
          fill="white"/>
</svg>
